<svg width="10" height="11" viewBox="0 0 10 11" fill="none" xmlns="http://www.w3.org/2000/svg">
<path d="M8 3.3L1.34375 9.975C1.19375 10.125 1.01562 10.2 0.809374 10.2C0.603124 10.2 0.424999 10.125 0.274999 9.975C0.124999 9.825 0.0499992 9.64688 0.0499992 9.44063C0.0499992 9.23438 0.124999 9.05625 0.274999 8.90625L6.95 2.25H1.25C1.0375 2.25 0.859374 2.17813 0.715624 2.03438C0.571874 1.89063 0.499999 1.7125 0.499999 1.5C0.499999 1.2875 0.571874 1.10938 0.715624 0.965625C0.859374 0.821875 1.0375 0.75 1.25 0.75H8.75C8.9625 0.75 9.14062 0.821875 9.28437 0.965625C9.42812 1.10938 9.5 1.2875 9.5 1.5V9C9.5 9.2125 9.42812 9.39063 9.28437 9.53438C9.14062 9.67813 8.9625 9.75 8.75 9.75C8.5375 9.75 8.35937 9.67813 8.21562 9.53438C8.07187 9.39063 8 9.2125 8 9V3.3Z" fill="#00639C"/>
</svg>
