<svg width="117" height="40" viewBox="0 0 117 40" fill="none" xmlns="http://www.w3.org/2000/svg">
<g clip-path="url(#clip0_289_28237)">
<rect y="0.00012207" width="117" height="40" rx="20" fill="#00639C"/>
<path d="M31 20.7501H25.75V26.0001H24.25V20.7501H19V19.2501H24.25V14.0001H25.75V19.2501H31V20.7501Z" fill="white"/>
<path d="M49.9795 23.6398V25.0001H44.6953V23.6398H49.9795ZM45.1807 15.047V25.0001H43.4648V15.047H45.1807ZM49.2891 19.2032V20.5431H44.6953V19.2032H49.2891ZM49.9453 15.047V16.4142H44.6953V15.047H49.9453ZM52.8506 19.1827V25.0001H51.2031V17.6036H52.7549L52.8506 19.1827ZM52.5566 21.0284L52.0234 21.0216C52.028 20.4975 52.1009 20.0167 52.2422 19.5792C52.388 19.1417 52.5885 18.7657 52.8438 18.4513C53.1035 18.1368 53.4134 17.8953 53.7734 17.7267C54.1335 17.5535 54.5345 17.4669 54.9766 17.4669C55.332 17.4669 55.6533 17.517 55.9404 17.6173C56.2321 17.713 56.4805 17.8702 56.6855 18.089C56.8952 18.3077 57.0547 18.5926 57.1641 18.9435C57.2734 19.2898 57.3281 19.7159 57.3281 20.2218V25.0001H55.6738V20.215C55.6738 19.8595 55.6214 19.5792 55.5166 19.3741C55.4163 19.1645 55.2682 19.0164 55.0723 18.9298C54.8809 18.8387 54.6416 18.7931 54.3545 18.7931C54.0719 18.7931 53.819 18.8523 53.5957 18.9708C53.3724 19.0893 53.1833 19.2511 53.0283 19.4562C52.8779 19.6613 52.7617 19.8982 52.6797 20.1671C52.5977 20.436 52.5566 20.7231 52.5566 21.0284ZM63.1797 23.5167V19.9894C63.1797 19.7251 63.1318 19.4972 63.0361 19.3058C62.9404 19.1144 62.7946 18.9663 62.5986 18.8615C62.4072 18.7566 62.1657 18.7042 61.874 18.7042C61.6051 18.7042 61.3727 18.7498 61.1768 18.8409C60.9808 18.9321 60.8281 19.0551 60.7188 19.2101C60.6094 19.365 60.5547 19.5405 60.5547 19.7365H58.9141C58.9141 19.4448 58.9847 19.1622 59.126 18.8888C59.2673 18.6154 59.4723 18.3715 59.7412 18.1573C60.0101 17.9432 60.3314 17.7745 60.7051 17.6515C61.0788 17.5284 61.498 17.4669 61.9629 17.4669C62.5189 17.4669 63.0111 17.5603 63.4395 17.7472C63.8724 17.934 64.2119 18.2166 64.458 18.5948C64.7087 18.9685 64.834 19.4379 64.834 20.0031V23.2911C64.834 23.6284 64.8568 23.9314 64.9023 24.2003C64.9525 24.4646 65.0231 24.6948 65.1143 24.8907V25.0001H63.4258C63.3483 24.8224 63.2868 24.5968 63.2412 24.3234C63.2002 24.0454 63.1797 23.7765 63.1797 23.5167ZM63.4189 20.5021L63.4326 21.5206H62.25C61.9447 21.5206 61.6758 21.5503 61.4434 21.6095C61.2109 21.6642 61.0173 21.7462 60.8623 21.8556C60.7074 21.965 60.5911 22.0971 60.5137 22.2521C60.4362 22.407 60.3975 22.5825 60.3975 22.7784C60.3975 22.9744 60.443 23.1544 60.5342 23.3185C60.6253 23.478 60.7575 23.6033 60.9307 23.6945C61.1084 23.7856 61.3226 23.8312 61.5732 23.8312C61.9105 23.8312 62.2044 23.7628 62.4551 23.6261C62.7103 23.4848 62.9108 23.3139 63.0566 23.1134C63.2025 22.9083 63.2799 22.7146 63.2891 22.5323L63.8223 23.2638C63.7676 23.4506 63.6742 23.6512 63.542 23.8654C63.4098 24.0795 63.2367 24.2846 63.0225 24.4806C62.8128 24.672 62.5599 24.8292 62.2637 24.9523C61.972 25.0753 61.6348 25.1368 61.252 25.1368C60.7689 25.1368 60.3382 25.0411 59.96 24.8497C59.5817 24.6538 59.2855 24.3917 59.0713 24.0636C58.8571 23.7309 58.75 23.3549 58.75 22.9357C58.75 22.5437 58.8229 22.1974 58.9688 21.8966C59.1191 21.5913 59.3379 21.3361 59.625 21.131C59.9167 20.9259 60.2721 20.771 60.6914 20.6661C61.1107 20.5568 61.5892 20.5021 62.127 20.5021H63.4189ZM66.5635 14.5001H68.2109V23.421L68.0537 25.0001H66.5635V14.5001ZM73.0371 21.2335V21.3771C73.0371 21.924 72.9756 22.4275 72.8525 22.8878C72.734 23.3435 72.5518 23.74 72.3057 24.0773C72.0641 24.4145 71.7633 24.6766 71.4033 24.8634C71.0479 25.0457 70.6354 25.1368 70.166 25.1368C69.7057 25.1368 69.3047 25.0503 68.9629 24.8771C68.6211 24.7039 68.334 24.4578 68.1016 24.1388C67.8737 23.8198 67.6891 23.4392 67.5479 22.9972C67.4066 22.5551 67.3063 22.0675 67.2471 21.5343V21.0763C67.3063 20.5385 67.4066 20.0509 67.5479 19.6134C67.6891 19.1713 67.8737 18.7908 68.1016 18.4718C68.334 18.1482 68.6188 17.8999 68.9561 17.7267C69.2979 17.5535 69.6966 17.4669 70.1523 17.4669C70.6263 17.4669 71.0433 17.5581 71.4033 17.7404C71.7679 17.9226 72.071 18.1824 72.3125 18.5197C72.554 18.8523 72.734 19.2488 72.8525 19.7091C72.9756 20.1694 73.0371 20.6775 73.0371 21.2335ZM71.3896 21.3771V21.2335C71.3896 20.9008 71.3623 20.5887 71.3076 20.297C71.2529 20.0008 71.1618 19.741 71.0342 19.5177C70.9111 19.2944 70.7425 19.1189 70.5283 18.9913C70.3187 18.8592 70.0566 18.7931 69.7422 18.7931C69.4505 18.7931 69.1999 18.8432 68.9902 18.9435C68.7806 19.0437 68.6051 19.1805 68.4639 19.3536C68.3226 19.5268 68.2109 19.7273 68.1289 19.9552C68.0514 20.1831 67.999 20.4292 67.9717 20.6935V21.9308C68.0127 22.2726 68.0993 22.587 68.2314 22.8741C68.3682 23.1567 68.5596 23.3846 68.8057 23.5577C69.0518 23.7264 69.3685 23.8107 69.7559 23.8107C70.0612 23.8107 70.3187 23.7491 70.5283 23.6261C70.738 23.5031 70.9043 23.3322 71.0273 23.1134C71.1549 22.8901 71.2461 22.6303 71.3008 22.3341C71.36 22.0379 71.3896 21.7189 71.3896 21.3771ZM76.1953 14.5001V25.0001H74.541V14.5001H76.1953ZM81.2607 25.1368C80.7139 25.1368 80.2194 25.048 79.7773 24.8702C79.3398 24.6879 78.9661 24.435 78.6562 24.1115C78.3509 23.7879 78.1162 23.4073 77.9521 22.9698C77.7881 22.5323 77.7061 22.0607 77.7061 21.5548V21.2814C77.7061 20.7026 77.7904 20.1785 77.959 19.7091C78.1276 19.2397 78.3623 18.8387 78.6631 18.506C78.9639 18.1687 79.3193 17.9113 79.7295 17.7335C80.1396 17.5558 80.584 17.4669 81.0625 17.4669C81.5911 17.4669 82.0537 17.5558 82.4502 17.7335C82.8467 17.9113 83.1748 18.1619 83.4346 18.4855C83.6989 18.8045 83.8949 19.185 84.0225 19.6271C84.1546 20.0691 84.2207 20.5568 84.2207 21.09V21.7941H78.5059V20.6115H82.5938V20.4816C82.5846 20.1853 82.5254 19.9073 82.416 19.6476C82.3112 19.3878 82.1494 19.1782 81.9307 19.0187C81.7119 18.8592 81.4202 18.7794 81.0557 18.7794C80.7822 18.7794 80.5384 18.8387 80.3242 18.9572C80.1146 19.0711 79.9391 19.2374 79.7979 19.4562C79.6566 19.6749 79.5472 19.9392 79.4697 20.2491C79.3968 20.5545 79.3604 20.8986 79.3604 21.2814V21.5548C79.3604 21.8784 79.4036 22.1792 79.4902 22.4572C79.5814 22.7306 79.7135 22.9698 79.8867 23.1749C80.0599 23.38 80.2695 23.5418 80.5156 23.6603C80.7617 23.7742 81.042 23.8312 81.3564 23.8312C81.7529 23.8312 82.1061 23.7514 82.416 23.5919C82.7259 23.4324 82.9948 23.2068 83.2227 22.9152L84.0908 23.756C83.9313 23.9884 83.724 24.2117 83.4688 24.4259C83.2135 24.6355 82.9014 24.8064 82.5322 24.9386C82.1676 25.0708 81.7438 25.1368 81.2607 25.1368ZM90.0176 23.4689V14.5001H91.6719V25.0001H90.1748L90.0176 23.4689ZM85.2051 21.3839V21.2404C85.2051 20.6798 85.2712 20.1694 85.4033 19.7091C85.5355 19.2443 85.7269 18.8455 85.9775 18.5128C86.2282 18.1756 86.5335 17.9181 86.8936 17.7404C87.2536 17.5581 87.6592 17.4669 88.1104 17.4669C88.557 17.4669 88.9489 17.5535 89.2861 17.7267C89.6234 17.8999 89.9105 18.1482 90.1475 18.4718C90.3844 18.7908 90.5736 19.1736 90.7148 19.6202C90.8561 20.0623 90.9564 20.5545 91.0156 21.0968V21.5548C90.9564 22.0835 90.8561 22.5665 90.7148 23.004C90.5736 23.4415 90.3844 23.8198 90.1475 24.1388C89.9105 24.4578 89.6211 24.7039 89.2793 24.8771C88.9421 25.0503 88.5479 25.1368 88.0967 25.1368C87.6501 25.1368 87.2467 25.0434 86.8867 24.8566C86.5312 24.6697 86.2282 24.4077 85.9775 24.0704C85.7269 23.7332 85.5355 23.3367 85.4033 22.881C85.2712 22.4207 85.2051 21.9217 85.2051 21.3839ZM86.8525 21.2404V21.3839C86.8525 21.7212 86.8822 22.0356 86.9414 22.3273C87.0052 22.6189 87.1032 22.8764 87.2354 23.0997C87.3675 23.3185 87.5384 23.4917 87.748 23.6193C87.9622 23.7423 88.2174 23.8038 88.5137 23.8038C88.8874 23.8038 89.195 23.7218 89.4365 23.5577C89.6781 23.3937 89.8672 23.1726 90.0039 22.8947C90.1452 22.6121 90.2409 22.2976 90.291 21.9513V20.714C90.2637 20.4451 90.2067 20.1945 90.1201 19.962C90.0381 19.7296 89.9264 19.5268 89.7852 19.3536C89.6439 19.1759 89.4684 19.0392 89.2588 18.9435C89.0537 18.8432 88.8099 18.7931 88.5273 18.7931C88.2266 18.7931 87.9714 18.8569 87.7617 18.9845C87.5521 19.1121 87.3789 19.2876 87.2422 19.5109C87.11 19.7342 87.012 19.9939 86.9482 20.2902C86.8844 20.5864 86.8525 20.9031 86.8525 21.2404Z" fill="white"/>
</g>
<defs>
<clipPath id="clip0_289_28237">
<rect y="0.00012207" width="117" height="40" rx="20" fill="white"/>
</clipPath>
</defs>
</svg>
