<svg width="49" height="12" viewBox="0 0 49 12" fill="none" xmlns="http://www.w3.org/2000/svg">
<path d="M6.97949 9.63965V11H1.69531V9.63965H6.97949ZM2.18066 1.04688V11H0.464844V1.04688H2.18066ZM6.28906 5.20312V6.54297H1.69531V5.20312H6.28906ZM6.94531 1.04688V2.41406H1.69531V1.04688H6.94531ZM9.85059 5.18262V11H8.20312V3.60352H9.75488L9.85059 5.18262ZM9.55664 7.02832L9.02344 7.02148C9.02799 6.4974 9.10091 6.0166 9.24219 5.5791C9.38802 5.1416 9.58854 4.76562 9.84375 4.45117C10.1035 4.13672 10.4134 3.89518 10.7734 3.72656C11.1335 3.55339 11.5345 3.4668 11.9766 3.4668C12.332 3.4668 12.6533 3.51693 12.9404 3.61719C13.2321 3.71289 13.4805 3.87012 13.6855 4.08887C13.8952 4.30762 14.0547 4.59245 14.1641 4.94336C14.2734 5.28971 14.3281 5.71582 14.3281 6.22168V11H12.6738V6.21484C12.6738 5.85938 12.6214 5.5791 12.5166 5.37402C12.4163 5.16439 12.2682 5.01628 12.0723 4.92969C11.8809 4.83854 11.6416 4.79297 11.3545 4.79297C11.0719 4.79297 10.819 4.85221 10.5957 4.9707C10.3724 5.08919 10.1833 5.25098 10.0283 5.45605C9.87793 5.66113 9.76172 5.89811 9.67969 6.16699C9.59766 6.43587 9.55664 6.72298 9.55664 7.02832ZM20.1797 9.5166V5.98926C20.1797 5.72493 20.1318 5.49707 20.0361 5.30566C19.9404 5.11426 19.7946 4.96615 19.5986 4.86133C19.4072 4.75651 19.1657 4.7041 18.874 4.7041C18.6051 4.7041 18.3727 4.74967 18.1768 4.84082C17.9808 4.93197 17.8281 5.05501 17.7188 5.20996C17.6094 5.36491 17.5547 5.54036 17.5547 5.73633H15.9141C15.9141 5.44466 15.9847 5.16211 16.126 4.88867C16.2673 4.61523 16.4723 4.37142 16.7412 4.15723C17.0101 3.94303 17.3314 3.77441 17.7051 3.65137C18.0788 3.52832 18.498 3.4668 18.9629 3.4668C19.5189 3.4668 20.0111 3.56022 20.4395 3.74707C20.8724 3.93392 21.2119 4.21647 21.458 4.59473C21.7087 4.96842 21.834 5.43783 21.834 6.00293V9.29102C21.834 9.62826 21.8568 9.93132 21.9023 10.2002C21.9525 10.4645 22.0231 10.6947 22.1143 10.8906V11H20.4258C20.3483 10.8223 20.2868 10.5967 20.2412 10.3232C20.2002 10.0452 20.1797 9.77637 20.1797 9.5166ZM20.4189 6.50195L20.4326 7.52051H19.25C18.9447 7.52051 18.6758 7.55013 18.4434 7.60938C18.2109 7.66406 18.0173 7.74609 17.8623 7.85547C17.7074 7.96484 17.5911 8.09701 17.5137 8.25195C17.4362 8.4069 17.3975 8.58236 17.3975 8.77832C17.3975 8.97428 17.443 9.1543 17.5342 9.31836C17.6253 9.47786 17.7575 9.60319 17.9307 9.69434C18.1084 9.78548 18.3226 9.83105 18.5732 9.83105C18.9105 9.83105 19.2044 9.7627 19.4551 9.62598C19.7103 9.4847 19.9108 9.3138 20.0566 9.11328C20.2025 8.9082 20.2799 8.71452 20.2891 8.53223L20.8223 9.26367C20.7676 9.45052 20.6742 9.65104 20.542 9.86523C20.4098 10.0794 20.2367 10.2845 20.0225 10.4805C19.8128 10.6719 19.5599 10.8291 19.2637 10.9521C18.972 11.0752 18.6348 11.1367 18.252 11.1367C17.7689 11.1367 17.3382 11.041 16.96 10.8496C16.5817 10.6536 16.2855 10.3916 16.0713 10.0635C15.8571 9.73079 15.75 9.35482 15.75 8.93555C15.75 8.54362 15.8229 8.19727 15.9688 7.89648C16.1191 7.59115 16.3379 7.33594 16.625 7.13086C16.9167 6.92578 17.2721 6.77083 17.6914 6.66602C18.1107 6.55664 18.5892 6.50195 19.127 6.50195H20.4189ZM23.5635 0.5H25.2109V9.4209L25.0537 11H23.5635V0.5ZM30.0371 7.2334V7.37695C30.0371 7.92383 29.9756 8.42741 29.8525 8.8877C29.734 9.34342 29.5518 9.73991 29.3057 10.0771C29.0641 10.4144 28.7633 10.6764 28.4033 10.8633C28.0479 11.0456 27.6354 11.1367 27.166 11.1367C26.7057 11.1367 26.3047 11.0501 25.9629 10.877C25.6211 10.7038 25.334 10.4577 25.1016 10.1387C24.8737 9.81966 24.6891 9.43913 24.5479 8.99707C24.4066 8.55501 24.3063 8.06738 24.2471 7.53418V7.07617C24.3063 6.53841 24.4066 6.05078 24.5479 5.61328C24.6891 5.17122 24.8737 4.79069 25.1016 4.47168C25.334 4.14811 25.6188 3.89974 25.9561 3.72656C26.2979 3.55339 26.6966 3.4668 27.1523 3.4668C27.6263 3.4668 28.0433 3.55794 28.4033 3.74023C28.7679 3.92253 29.071 4.18229 29.3125 4.51953C29.554 4.85221 29.734 5.2487 29.8525 5.70898C29.9756 6.16927 30.0371 6.67741 30.0371 7.2334ZM28.3896 7.37695V7.2334C28.3896 6.90072 28.3623 6.58854 28.3076 6.29688C28.2529 6.00065 28.1618 5.74089 28.0342 5.51758C27.9111 5.29427 27.7425 5.11882 27.5283 4.99121C27.3187 4.85905 27.0566 4.79297 26.7422 4.79297C26.4505 4.79297 26.1999 4.8431 25.9902 4.94336C25.7806 5.04362 25.6051 5.18034 25.4639 5.35352C25.3226 5.52669 25.2109 5.72721 25.1289 5.95508C25.0514 6.18294 24.999 6.42904 24.9717 6.69336V7.93066C25.0127 8.27246 25.0993 8.58691 25.2314 8.87402C25.3682 9.15658 25.5596 9.38444 25.8057 9.55762C26.0518 9.72624 26.3685 9.81055 26.7559 9.81055C27.0612 9.81055 27.3187 9.74902 27.5283 9.62598C27.738 9.50293 27.9043 9.33203 28.0273 9.11328C28.1549 8.88997 28.2461 8.63021 28.3008 8.33398C28.36 8.03776 28.3896 7.71875 28.3896 7.37695ZM33.1953 0.5V11H31.541V0.5H33.1953ZM38.2607 11.1367C37.7139 11.1367 37.2194 11.0479 36.7773 10.8701C36.3398 10.6878 35.9661 10.4349 35.6562 10.1113C35.3509 9.78776 35.1162 9.40723 34.9521 8.96973C34.7881 8.53223 34.7061 8.06055 34.7061 7.55469V7.28125C34.7061 6.70247 34.7904 6.17839 34.959 5.70898C35.1276 5.23958 35.3623 4.83854 35.6631 4.50586C35.9639 4.16862 36.3193 3.91113 36.7295 3.7334C37.1396 3.55566 37.584 3.4668 38.0625 3.4668C38.5911 3.4668 39.0537 3.55566 39.4502 3.7334C39.8467 3.91113 40.1748 4.16178 40.4346 4.48535C40.6989 4.80436 40.8949 5.1849 41.0225 5.62695C41.1546 6.06901 41.2207 6.55664 41.2207 7.08984V7.79395H35.5059V6.61133H39.5938V6.48145C39.5846 6.18522 39.5254 5.90723 39.416 5.64746C39.3112 5.3877 39.1494 5.17806 38.9307 5.01855C38.7119 4.85905 38.4202 4.7793 38.0557 4.7793C37.7822 4.7793 37.5384 4.83854 37.3242 4.95703C37.1146 5.07096 36.9391 5.2373 36.7979 5.45605C36.6566 5.6748 36.5472 5.93913 36.4697 6.24902C36.3968 6.55436 36.3604 6.89844 36.3604 7.28125V7.55469C36.3604 7.87826 36.4036 8.17904 36.4902 8.45703C36.5814 8.73047 36.7135 8.96973 36.8867 9.1748C37.0599 9.37988 37.2695 9.54167 37.5156 9.66016C37.7617 9.77409 38.042 9.83105 38.3564 9.83105C38.7529 9.83105 39.1061 9.7513 39.416 9.5918C39.7259 9.43229 39.9948 9.20671 40.2227 8.91504L41.0908 9.75586C40.9313 9.98828 40.724 10.2116 40.4688 10.4258C40.2135 10.6354 39.9014 10.8063 39.5322 10.9385C39.1676 11.0706 38.7438 11.1367 38.2607 11.1367ZM47.0176 9.46875V0.5H48.6719V11H47.1748L47.0176 9.46875ZM42.2051 7.38379V7.24023C42.2051 6.67969 42.2712 6.16927 42.4033 5.70898C42.5355 5.24414 42.7269 4.84538 42.9775 4.5127C43.2282 4.17546 43.5335 3.91797 43.8936 3.74023C44.2536 3.55794 44.6592 3.4668 45.1104 3.4668C45.557 3.4668 45.9489 3.55339 46.2861 3.72656C46.6234 3.89974 46.9105 4.14811 47.1475 4.47168C47.3844 4.79069 47.5736 5.1735 47.7148 5.62012C47.8561 6.06217 47.9564 6.55436 48.0156 7.09668V7.55469C47.9564 8.08333 47.8561 8.56641 47.7148 9.00391C47.5736 9.44141 47.3844 9.81966 47.1475 10.1387C46.9105 10.4577 46.6211 10.7038 46.2793 10.877C45.9421 11.0501 45.5479 11.1367 45.0967 11.1367C44.6501 11.1367 44.2467 11.0433 43.8867 10.8564C43.5312 10.6696 43.2282 10.4076 42.9775 10.0703C42.7269 9.73307 42.5355 9.33659 42.4033 8.88086C42.2712 8.42057 42.2051 7.92155 42.2051 7.38379ZM43.8525 7.24023V7.38379C43.8525 7.72103 43.8822 8.03548 43.9414 8.32715C44.0052 8.61882 44.1032 8.8763 44.2354 9.09961C44.3675 9.31836 44.5384 9.49154 44.748 9.61914C44.9622 9.74219 45.2174 9.80371 45.5137 9.80371C45.8874 9.80371 46.195 9.72168 46.4365 9.55762C46.6781 9.39355 46.8672 9.17253 47.0039 8.89453C47.1452 8.61198 47.2409 8.29753 47.291 7.95117V6.71387C47.2637 6.44499 47.2067 6.19434 47.1201 5.96191C47.0381 5.72949 46.9264 5.52669 46.7852 5.35352C46.6439 5.17578 46.4684 5.03906 46.2588 4.94336C46.0537 4.8431 45.8099 4.79297 45.5273 4.79297C45.2266 4.79297 44.9714 4.85677 44.7617 4.98438C44.5521 5.11198 44.3789 5.28743 44.2422 5.51074C44.11 5.73405 44.012 5.99382 43.9482 6.29004C43.8844 6.58626 43.8525 6.90299 43.8525 7.24023Z" fill="#00639C"/>
</svg>
