<svg width="16" height="16" viewBox="0 0 16 16" fill="none" xmlns="http://www.w3.org/2000/svg">
<path d="M13.2876 2.6825C11.8851 1.2725 10.0176 0.5 8.0301 0.5C3.9351 0.5 0.597598 3.8375 0.597598 7.9325C0.597598 9.245 0.942598 10.52 1.5876 11.645L0.537598 15.5L4.4751 14.465C5.5626 15.0575 6.7851 15.3725 8.0301 15.3725C12.1251 15.3725 15.4626 12.035 15.4626 7.94C15.4626 5.9525 14.6901 4.085 13.2876 2.6825ZM8.0301 14.1125C6.9201 14.1125 5.8326 13.8125 4.8801 13.25L4.6551 13.115L2.3151 13.73L2.9376 11.45L2.7876 11.2175C2.1726 10.235 1.8426 9.095 1.8426 7.9325C1.8426 4.5275 4.6176 1.7525 8.0226 1.7525C9.6726 1.7525 11.2251 2.3975 12.3876 3.5675C13.5576 4.7375 14.1951 6.29 14.1951 7.94C14.2101 11.345 11.4351 14.1125 8.0301 14.1125ZM11.4201 9.4925C11.2326 9.4025 10.3176 8.9525 10.1526 8.885C9.9801 8.825 9.8601 8.795 9.7326 8.975C9.6051 9.1625 9.2526 9.5825 9.1476 9.7025C9.0426 9.83 8.9301 9.845 8.7426 9.7475C8.5551 9.6575 7.9551 9.455 7.2501 8.825C6.6951 8.33 6.3276 7.7225 6.2151 7.535C6.1101 7.3475 6.2001 7.25 6.2976 7.1525C6.3801 7.07 6.4851 6.935 6.5751 6.83C6.6651 6.725 6.7026 6.6425 6.7626 6.5225C6.8226 6.395 6.7926 6.29 6.7476 6.2C6.7026 6.11 6.3276 5.195 6.1776 4.82C6.0276 4.46 5.8701 4.505 5.7576 4.4975C5.6451 4.4975 5.5251 4.4975 5.3976 4.4975C5.2701 4.4975 5.0751 4.5425 4.9026 4.73C4.7376 4.9175 4.2576 5.3675 4.2576 6.2825C4.2576 7.1975 4.9251 8.0825 5.0151 8.2025C5.1051 8.33 6.3276 10.205 8.1876 11.0075C8.6301 11.2025 8.9751 11.315 9.2451 11.3975C9.6876 11.54 10.0926 11.5175 10.4151 11.4725C10.7751 11.42 11.5176 11.0225 11.6676 10.5875C11.8251 10.1525 11.8251 9.785 11.7726 9.7025C11.7201 9.62 11.6076 9.5825 11.4201 9.4925Z" fill="white"/>
</svg>
